<?xml version="1.0" encoding="UTF-8" standalone="no"?>
<svg
   width="18"
   height="18"
   viewBox="0 0 18 18"
   fill="none"
   version="1.1"
   id="svg3325"
   xmlSpace="preserve"
   xmlns="http://www.w3.org/2000/svg"
   xmlnsSvg="http://www.w3.org/2000/svg"><defs
     id="defs3329" /><path
     style="fill:#f7f7f7;fill-opacity:1;stroke-width:0.0352431"
     d="M 5.0351515,17.972045 C 3.7719315,17.847253 2.5547576,17.265751 1.6381374,16.349132 0.70442173,15.415415 0.14074381,14.22039 0.01250476,12.902706 c -0.04290835,-0.440898 -0.04290835,-7.3899777 0,-7.8308746 C 0.14074355,3.7541473 0.70442173,2.5591207 1.6381374,1.625405 2.5718531,0.6916894 3.7668798,0.12801148 5.0845637,-2.2758901e-4 c 0.4408969,-0.042908391 7.3899763,-0.042908391 7.8308753,0 C 14.233122,0.12801116 15.428148,0.6916894 16.361864,1.625405 c 0.933715,0.9337157 1.497393,2.1287423 1.625633,3.4464264 0.04291,0.4408969 0.04291,7.3899766 0,7.8308746 -0.128239,1.317684 -0.691918,2.512709 -1.625633,3.446426 -0.933716,0.933714 -2.128742,1.497393 -3.446425,1.625632 -0.406592,0.03957 -7.476907,0.03714 -7.8802875,-0.0027 z m 7.8877035,-1.69232 c 1.754499,-0.2638 3.105802,-1.615104 3.369602,-3.369602 0.05277,-0.350948 0.05277,-7.4947615 0,-7.8457099 -0.2638,-1.7544981 -1.615103,-3.1058028 -3.369602,-3.3696023 -0.350948,-0.052767 -7.4947613,-0.052767 -7.8457095,0 -1.7544982,0.2637995 -3.1058029,1.6151042 -3.3696022,3.3696023 -0.052766,0.3509484 -0.052766,7.4947619 0,7.8457099 0.261936,1.742107 1.6047406,3.094412 3.3452298,3.368901 0.2946566,0.04647 7.5613759,0.04712 7.8700819,7.01e-4 z M 8.3832467,13.446497 C 7.4260764,13.312495 6.597973,12.91258 5.901831,12.248153 5.0929949,11.476166 4.6358788,10.536436 4.519393,9.4061692 4.3875531,8.1269172 4.8351814,6.8361808 5.7391162,5.8890986 7.3274366,4.2249629 9.8572826,4.0119204 11.701957,5.3869583 c 0.660264,0.4921675 1.222448,1.2372639 1.510056,2.001364 0.398431,1.0585362 0.382102,2.2679078 -0.0447,3.3117007 -0.460234,1.125517 -1.432663,2.071783 -2.568353,2.499257 -0.7081974,0.266565 -1.4702113,0.351588 -2.2156991,0.247217 z M 9.651998,11.735718 c 1.07116,-0.29804 1.795853,-1.026796 2.102288,-2.1140741 0.02607,-0.092476 0.04469,-0.3569557 0.04469,-0.6343755 0,-0.2774211 -0.01864,-0.5419035 -0.04469,-0.6343754 C 11.445806,7.2583618 10.728906,6.5414623 9.6343761,6.2329827 9.5419051,6.206915 9.2774205,6.1882838 9.0000008,6.1882838 c -0.4909748,0 -0.6089012,0.02043 -1.0313379,0.1787009 C 7.2911006,6.6208379 6.6335703,7.2783676 6.3797182,7.9559295 6.2214503,8.3783665 6.201017,8.4962925 6.201017,8.987267 c 0,0.4909747 0.020434,0.608902 0.1787012,1.031337 0.2234702,0.59647 0.7720502,1.196163 1.3691527,1.496719 0.1882823,0.09477 0.5581042,0.216942 0.7753479,0.256129 0.2196836,0.03963 0.9388166,0.01684 1.1277792,-0.03574 z M 13.5436,4.6427171 C 13.35746,4.5172755 13.264417,4.3529831 13.264417,4.149739 c 0,-0.449035 0.449072,-0.7313203 0.856126,-0.5381598 0.412318,0.1956578 0.426154,0.8110637 0.02332,1.0374653 -0.181751,0.1021488 -0.443392,0.099392 -0.600269,-0.00633 z"
     id="path3343" /></svg>
