<?xml version="1.0" encoding="UTF-8" standalone="no"?>
<!-- Created with Inkscape (http://www.inkscape.org/) -->

<svg
   width="62.931324mm"
   height="10.37711mm"
   viewBox="0 0 62.931324 3.4939766"
   version="1.1"
   id="svg5"
   xmlSpace="preserve"
   xmlnsSvg="http://www.w3.org/2000/svg"
   xmlns="http://www.w3.org/2000/svg">
  <defs
     id="defs2">
    <linearGradient
       id="paint0_linear_3480_82"
       x1="7.7430401"
       y1="4.5461702"
       x2="33.5317"
       y2="5.3117099"
       gradientUnits="userSpaceOnUse">
      <stop
         stop-color="#DC3E88"
         id="stop184" />
      <stop
         offset="0.418735"
         stop-color="#B840AE"
         id="stop186" />
      <stop
         offset="1"
         stop-color="#843FE8"
         id="stop188" />
    </linearGradient>
    <linearGradient
       id="paint0_linear_3480_67"
       x1="35.587002"
       y1="3.5747499"
       x2="148.672"
       y2="20.566"
       gradientUnits="userSpaceOnUse">
      <stop
         stop-color="#DC3E88"
         id="stop206" />
      <stop
         offset="0.418735"
         stop-color="#B840AE"
         id="stop208" />
      <stop
         offset="1"
         stop-color="#843FE8"
         id="stop210" />
    </linearGradient>
  </defs>
  <g
     id="layer1"
     transform="translate(10.014987,-165.55292)">
    <g
       style="fill:none"
       id="g202"
       transform="matrix(0.26458333,0,0,0.26458333,-10.014987,161.93498)">
      <path
         d="m 39.1871,35.7153 v -1.983 c 0,-0.3966 -0.2799,-0.661 -0.6998,-0.661 H 37.0878 V 17.2077 h 2.0993 c 0.4198,0 0.6997,-0.2644 0.6997,-0.661 v -2.4456 c 0,-0.1983 -0.0699,-0.3966 -0.2799,-0.5288 L 34.2887,9.87082 v -7.8657 c 0,-0.39659 -0.2799,-0.66099 -0.6998,-0.66099 h -5.5981 c -0.4199,0 -0.6998,0.2644 -0.6998,0.66099 V 4.91344 L 21.4129,0.815347 c -0.2799,-0.198295 -0.5598,-0.198295 -0.8397,0 L 2.86905,13.2418 H 2.79908 v 0.0661 l -0.41986,0.2644 c -0.20993,0.1322 -0.27991,0.3305 -0.27991,0.5288 v 2.4456 c 0,0.3966 0.2799,0.661 0.69977,0.661 h 2.0993 V 33.0713 H 3.49885 c -0.41987,0 -0.69977,0.2644 -0.69977,0.661 v 1.983 H 0 v 1.3219 H 3.49885 38.4873 41.9861 V 35.7153 Z M 32.8891,2.6661 V 3.32708 H 28.6905 V 2.6661 Z m -4.1986,1.98295 h 4.1986 V 8.87934 L 28.6905,5.90492 Z M 3.49885,14.5638 H 31.4896 v -1.322 H 5.17829 L 20.9931,2.13797 38.4873,14.4323 v 1.4541 H 36.388 5.59815 3.49885 Z m 2.79907,2.6439 H 35.6882 V 33.0713 H 18.194 v -9.2537 h 1.3995 v -1.322 H 17.4942 9.79677 7.69746 v 1.322 H 9.097 v 9.2537 H 6.29792 Z m 4.19858,6.6099 h 6.298 v 9.2537 h -6.298 z M 4.19861,35.7153 v -1.322 h 1.39954 4.19862 7.69743 18.8938 1.3995 v 1.322 z"
         fill="url(#paint0_linear_3480_82)"
         id="path182"
         style="fill:url(#paint0_linear_3480_82)" />
    </g>
    <g
       style="fill:none"
       id="g224"
       transform="matrix(0.26458333,0,0,0.26458333,2.4213791,163.17953)">
      <path
         d="M 0.897217,1.66377 V 31.6989 H 7.34629 V 12.7048 L 14.7358,25.438 h 4.7473 l 7.3895,-12.7332 v 18.9941 h 6.4491 V 1.66377 h -6.046 L 17.199,19.008 7.16715,1.66377 Z M 37.8233,20.4886 c 0,6.7684 4.9712,11.8448 12.092,11.8448 4.4338,0 9.0466,-2.0728 10.7485,-6.0916 l -5.5982,-1.6921 c -1.1644,1.7767 -2.8662,2.7919 -5.1055,2.7919 -3.4037,0 -5.2846,-2.3689 -5.7773,-5.3301 h 16.9736 v -1.4806 c 0,-6.7685 -4.3441,-11.80254 -11.5546,-11.80254 -7.076,0 -11.7785,5.41474 -11.7785,11.76024 z m 11.7785,-7.1915 c 3.0006,0 4.7025,2.1151 5.1056,4.7379 h -10.435 c 0.5374,-2.6228 2.3288,-4.7379 5.3294,-4.7379 z M 63.0836,9.36291 v 4.78019 h 4.0307 v 10.4066 c 0,4.8225 2.911,7.7837 7.9269,7.7837 1.9706,0 3.9859,-0.4653 5.6878,-1.4806 L 79.6093,26.411 c -1.0748,0.423 -2.1497,0.7614 -3.3141,0.7614 -2.1944,0 -2.911,-1.4806 -2.911,-3.3419 v -9.6874 h 6.4491 V 9.36291 H 73.3842 V 1.74838 H 67.1143 V 9.36291 Z M 91.5481,32.3334 c 2.6871,0 5.5534,-1.0153 6.9865,-3.2573 l 0.1791,2.6228 h 5.5983 v -13.537 c 0,-5.8378 -4.3443,-9.43354 -10.2559,-9.43354 -4.3442,0 -9.0466,2.19974 -10.0767,6.47234 l 5.5981,1.0576 c 0.6718,-1.7767 2.4632,-2.6651 4.389,-2.6651 2.7319,0 4.2546,1.7767 4.2546,4.2726 v 1.3114 c -1.8362,-0.6346 -3.4037,-0.973 -5.3742,-0.973 -4.7025,0 -9.7184,2.1575 -9.7184,7.1492 0,4.4418 4.1202,6.98 8.4196,6.98 z m -2.2393,-7.2761 c 0,-2.2421 2.6424,-2.8766 4.5681,-2.8766 0.7614,0 1.4779,0.0846 2.2393,0.2115 0.7613,0.1692 1.4331,0.3807 2.1049,0.6345 v 0.2116 c 0,2.7497 -2.4184,4.5264 -5.1503,4.5264 -1.7466,0 -3.762,-0.8038 -3.762,-2.7074 z M 109.308,0.140869 V 31.6989 h 5.778 l 0.179,-2.919 c 1.657,2.369 4.344,3.5535 7.3,3.5535 6.941,0 11.241,-5.8801 11.241,-11.9294 0,-6.0493 -4.165,-11.67564 -10.883,-11.67564 -2.956,0 -5.553,1.22679 -7.345,3.46884 V 0.140869 Z M 121.445,14.0585 c 3.807,0 5.956,3.1727 5.956,6.4724 0,3.3419 -2.239,6.4723 -5.956,6.4723 -3.762,0 -5.956,-3.215 -5.956,-6.4723 0,-3.342 2.239,-6.4724 5.956,-6.4724 z M 137.911,9.36291 V 31.6989 h 6.27 V 18.8811 c 0,-2.7497 1.926,-4.8226 4.837,-4.8226 3.09,0 4.21,2.4113 4.21,4.9918 v 12.6486 h 6.27 V 18.2888 c 0,-5.2032 -2.822,-9.56044 -8.644,-9.56044 -2.866,0 -5.508,1.14218 -6.986,3.51114 L 143.689,9.36291 Z M 164.503,0.140869 V 31.6989 h 5.777 l 0.179,-2.919 c 1.657,2.369 4.344,3.5535 7.3,3.5535 6.942,0 11.241,-5.8801 11.241,-11.9294 0,-6.0493 -4.165,-11.67564 -10.883,-11.67564 -2.956,0 -5.553,1.22679 -7.345,3.46884 V 0.140869 Z M 176.639,14.0585 c 3.807,0 5.957,3.1727 5.957,6.4724 0,3.3419 -2.24,6.4723 -5.957,6.4723 -3.762,0 -5.956,-3.215 -5.956,-6.4723 0,-3.342 2.239,-6.4724 5.956,-6.4724 z"
         fill="url(#paint0_linear_3480_67)"
         id="path204"
         style="fill:url(#paint0_linear_3480_67)" />
    </g>
  </g>
</svg>
