<?xml version="1.0" encoding="UTF-8" standalone="no"?>
<!-- Created with Inkscape (http://www.inkscape.org/) -->

<svg
   width="56.752785mm"
   height="10.125813mm"
   viewBox="0 0 56.752785 3.4093648"
   version="1.1"
   id="svg5"
   xmlSpace="preserve"
   xmlnsSvg="http://www.w3.org/2000/svg"
   xmlns="http://www.w3.org/2000/svg"><defs
     id="defs2" /><g
     id="g1099"
     transform="translate(-96.014773,-228.24311)"><path
       d="m 145.74464,230.34896 c -0.31009,-0.21979 -0.6567,-0.37915 -0.98451,-0.57187 -0.21776,-0.11314 -0.42572,-0.24665 -0.62125,-0.39897 -0.3122,-0.27395 -0.2495,-0.81354 0.0802,-1.04896 0.46779,-0.33438 1.24566,-0.14478 1.32609,0.53543 2.7e-4,0.007 0.003,0.0137 0.008,0.0186 0.005,0.005 0.0114,0.008 0.018,0.007 h 0.7067 c 0.004,3e-5 0.008,-8.5e-4 0.0116,-0.003 0.003,-0.002 0.007,-0.004 0.01,-0.007 0.003,-0.003 0.005,-0.007 0.006,-0.0109 10e-4,-0.004 0.002,-0.008 10e-4,-0.0125 -0.0381,-0.46979 -0.20558,-0.86042 -0.51673,-1.11043 -0.28787,-0.23606 -0.64056,-0.36489 -1.00383,-0.36666 -1.87219,0 -2.04232,2.10939 -1.03558,2.77503 0.11748,0.0771 1.1049,0.60521 1.45415,0.83333 0.34952,0.22813 0.45905,0.65104 0.30745,0.98542 -0.13812,0.30625 -0.4961,0.51146 -0.85434,0.49167 -0.39132,-0.0219 -0.6948,-0.24894 -0.80143,-0.60208 -0.0172,-0.0782 -0.0265,-0.1582 -0.0275,-0.23855 -5.3e-4,-0.008 -0.004,-0.0148 -0.009,-0.02 -0.005,-0.005 -0.0122,-0.008 -0.0193,-0.008 h -0.76915 c -0.008,2.7e-4 -0.0148,0.004 -0.0201,0.01 -0.005,0.006 -0.008,0.0136 -0.008,0.0217 0,0.59169 0.13891,0.91877 0.51277,1.21772 0.32755,0.26463 0.72866,0.40539 1.14009,0.4 1.04589,0 1.59199,-0.63125 1.69968,-1.28543 0.10768,-0.65416 -0.0696,-1.23021 -0.61066,-1.61147 z"
       fill="#f7f7f7"
       id="path817"
       style="stroke-width:0.264583" /><path
       d="m 112.42619,227.48125 h -0.70935 c -0.006,-2.2e-4 -0.0119,0.002 -0.0167,0.006 -0.005,0.004 -0.008,0.009 -0.01,0.0154 l -0.63209,2.20937 c -0.002,0.006 -0.005,0.0116 -0.01,0.0155 -0.005,0.004 -0.0106,0.006 -0.0167,0.006 -0.006,0 -0.0119,-0.002 -0.0167,-0.006 -0.005,-0.004 -0.008,-0.009 -0.01,-0.0155 l -0.63103,-2.20937 c -0.002,-0.006 -0.006,-0.0115 -0.0106,-0.0152 -0.005,-0.004 -0.0108,-0.006 -0.0169,-0.006 h -1.16734 c -0.007,0 -0.0145,0.003 -0.0198,0.008 -0.005,0.005 -0.008,0.0129 -0.009,0.0207 v 5.64483 c 0,0.008 0.003,0.0157 0.008,0.0214 0.005,0.006 0.0124,0.009 0.0201,0.009 h 0.76914 c 0.004,0 0.007,-8e-4 0.0106,-0.002 0.003,-0.002 0.007,-0.004 0.009,-0.007 0.003,-0.003 0.005,-0.006 0.006,-0.01 0.001,-0.004 0.002,-0.008 0.002,-0.0115 v -4.28858 c 5.3e-4,-0.007 0.003,-0.0133 0.008,-0.0182 0.005,-0.005 0.0103,-0.008 0.0167,-0.009 0.006,-9.8e-4 0.013,4e-4 0.0185,0.004 0.006,0.004 0.01,0.009 0.0119,0.0153 l 0.63606,2.22398 0.0442,0.15521 c 0.002,0.006 0.006,0.0114 0.0106,0.0152 0.005,0.004 0.0109,0.006 0.0167,0.006 h 0.58737 c 0.006,1e-4 0.0119,-0.002 0.0169,-0.006 0.005,-0.004 0.008,-0.009 0.0103,-0.0152 l 0.0442,-0.15521 0.63606,-2.22398 c 0.002,-0.006 0.006,-0.0118 0.0119,-0.0153 0.006,-0.003 0.0122,-0.005 0.0185,-0.004 0.006,9.5e-4 0.0122,0.004 0.0167,0.009 0.004,0.005 0.007,0.0114 0.008,0.0182 v 4.28858 c -2.7e-4,0.004 5.3e-4,0.008 0.002,0.0115 0.001,0.004 0.003,0.007 0.006,0.01 0.002,0.003 0.006,0.005 0.009,0.007 0.003,0.002 0.007,0.002 0.0106,0.002 h 0.76914 c 0.008,0 0.0148,-0.003 0.0201,-0.009 0.005,-0.006 0.008,-0.0133 0.008,-0.0214 v -5.64483 c -2.7e-4,-0.008 -0.003,-0.0153 -0.009,-0.0207 -0.005,-0.005 -0.0124,-0.008 -0.0199,-0.008 z"
       fill="#f7f7f7"
       id="path819"
       style="stroke-width:0.264583" /><path
       d="m 133.99291,227.48125 c -0.006,1e-4 -0.0116,0.002 -0.0164,0.006 -0.005,0.004 -0.008,0.009 -0.01,0.0149 l -0.63103,2.2094 c -0.002,0.006 -0.006,0.0112 -0.0103,0.0149 -0.005,0.004 -0.0109,0.006 -0.0167,0.006 -0.006,0 -0.0116,-0.002 -0.0167,-0.006 -0.005,-0.004 -0.008,-0.009 -0.0103,-0.0149 l -0.63103,-2.2094 c -0.002,-0.006 -0.005,-0.0113 -0.0101,-0.0151 -0.005,-0.004 -0.0106,-0.006 -0.0164,-0.006 h -1.1676 c -0.007,-3e-5 -0.0143,0.003 -0.0196,0.008 -0.005,0.005 -0.008,0.0129 -0.009,0.0207 v 5.64484 c 0,0.008 0.003,0.0157 0.008,0.0214 0.005,0.006 0.0124,0.009 0.0198,0.009 h 0.76941 c 0.007,-2.6e-4 0.0143,-0.004 0.0193,-0.009 0.005,-0.006 0.008,-0.0132 0.008,-0.021 v -4.28858 c 5.3e-4,-0.007 0.003,-0.0133 0.008,-0.0183 0.004,-0.005 0.0103,-0.008 0.0167,-0.009 0.006,-9.5e-4 0.0127,4e-4 0.0183,0.004 0.006,0.003 0.01,0.009 0.0122,0.0152 l 0.63605,2.22398 0.0442,0.15521 c 0.002,0.006 0.005,0.0112 0.0101,0.0149 0.005,0.004 0.0103,0.006 0.0164,0.006 h 0.58711 c 0.006,2.1e-4 0.0116,-0.002 0.0167,-0.006 0.005,-0.004 0.008,-0.009 0.01,-0.0154 l 0.045,-0.15521 0.635,-2.22398 c 0.002,-0.006 0.007,-0.0118 0.0122,-0.0152 0.006,-0.003 0.0119,-0.005 0.0182,-0.004 0.006,9.8e-4 0.0124,0.004 0.0167,0.009 0.005,0.005 0.007,0.0114 0.008,0.0183 v 4.28858 c 0,0.008 0.003,0.0157 0.008,0.0214 0.005,0.006 0.0124,0.009 0.0198,0.009 h 0.76914 c 0.007,-2.6e-4 0.0146,-0.004 0.0196,-0.009 0.005,-0.006 0.008,-0.0132 0.008,-0.021 v -5.64484 c -2.7e-4,-0.008 -0.003,-0.0149 -0.008,-0.0203 -0.005,-0.005 -0.0119,-0.009 -0.0193,-0.009 z"
       fill="#f7f7f7"
       id="path821"
       style="stroke-width:0.264583" /><path
       d="m 124.09484,227.48125 h -3.62082 c -0.007,-3e-5 -0.0143,0.003 -0.0196,0.008 -0.005,0.005 -0.008,0.0129 -0.009,0.0207 v 0.70626 c 2.7e-4,0.008 0.003,0.0153 0.009,0.0207 0.005,0.005 0.0122,0.008 0.0196,0.008 h 1.40229 v 4.9094 c 0,0.004 8e-4,0.008 0.002,0.0116 0.002,0.004 0.004,0.007 0.006,0.01 0.003,0.003 0.006,0.005 0.009,0.007 0.003,0.002 0.007,0.002 0.0108,0.002 h 0.76915 c 0.007,-2.6e-4 0.0145,-0.004 0.0196,-0.009 0.005,-0.006 0.008,-0.0132 0.008,-0.021 v -4.9094 h 1.39356 c 0.007,0 0.0143,-0.003 0.0196,-0.008 0.005,-0.005 0.008,-0.0129 0.009,-0.0207 v -0.70626 c -2.7e-4,-0.008 -0.003,-0.0152 -0.009,-0.0207 -0.005,-0.005 -0.0122,-0.008 -0.0196,-0.008 z"
       fill="#f7f7f7"
       id="path823"
       style="stroke-width:0.264583" /><path
       d="m 128.62451,233.18545 h 0.69877 c 0.004,3e-5 0.008,-0.001 0.0122,-0.003 0.004,-0.002 0.007,-0.005 0.01,-0.009 0.003,-0.004 0.004,-0.008 0.005,-0.0123 8e-4,-0.005 5.3e-4,-0.009 -5.3e-4,-0.0135 l -1.43854,-5.66359 c -0.002,-0.006 -0.005,-0.0119 -0.0103,-0.0159 -0.005,-0.004 -0.0109,-0.006 -0.0172,-0.006 h -1.00383 c -0.006,-3e-5 -0.0124,0.002 -0.0172,0.006 -0.005,0.004 -0.009,0.01 -0.0103,0.0159 l -1.4433,5.66359 c -10e-4,0.004 -10e-4,0.009 -2.6e-4,0.0135 7.9e-4,0.004 0.003,0.009 0.005,0.0123 0.003,0.004 0.006,0.007 0.01,0.009 0.004,0.002 0.008,0.003 0.0124,0.003 h 0.69877 c 0.006,-2.6e-4 0.0122,-0.003 0.0169,-0.007 0.005,-0.004 0.008,-0.01 0.01,-0.0161 l 0.41989,-1.64584 c 0.001,-0.006 0.005,-0.0118 0.01,-0.0157 0.005,-0.004 0.0109,-0.006 0.0167,-0.006 h 1.54438 c 0.006,1.8e-4 0.0116,0.002 0.0164,0.006 0.005,0.004 0.008,0.009 0.01,0.0155 l 0.41778,1.64478 c 0.001,0.007 0.005,0.0133 0.01,0.0177 0.005,0.004 0.0119,0.007 0.0185,0.006 z m -1.83383,-2.49272 0.56171,-2.20522 c 0.002,-0.006 0.006,-0.0112 0.0103,-0.0149 0.005,-0.004 0.0106,-0.006 0.0167,-0.006 0.006,0 0.0116,0.002 0.0164,0.006 0.005,0.004 0.008,0.009 0.0103,0.0149 l 0.56171,2.20522 c 0.001,0.004 0.002,0.009 7.9e-4,0.0135 -7.9e-4,0.004 -0.002,0.009 -0.005,0.0124 -0.003,0.004 -0.006,0.007 -0.01,0.009 -0.004,0.002 -0.008,0.003 -0.0122,0.003 h -1.12342 c -0.005,-2e-5 -0.009,-0.001 -0.0124,-0.003 -0.004,-0.002 -0.007,-0.005 -0.0101,-0.009 -0.003,-0.004 -0.004,-0.008 -0.005,-0.0123 -7.9e-4,-0.004 -7.9e-4,-0.009 2.6e-4,-0.0135 z"
       fill="#f7f7f7"
       id="path825"
       style="stroke-width:0.264583" /><path
       d="m 140.53473,233.18548 h 0.69771 c 0.004,-3e-5 0.008,-0.001 0.0124,-0.003 0.004,-0.002 0.007,-0.005 0.01,-0.009 0.003,-0.004 0.005,-0.008 0.005,-0.0123 0.001,-0.004 0.001,-0.009 0,-0.0135 l -1.44356,-5.66359 c -0.002,-0.006 -0.005,-0.0121 -0.0101,-0.0161 -0.005,-0.004 -0.0111,-0.006 -0.0172,-0.006 h -1.00012 c -0.006,-2e-5 -0.0122,0.002 -0.0172,0.006 -0.005,0.004 -0.008,0.009 -0.0103,0.0158 l -1.44224,5.66359 c -0.001,0.004 -0.001,0.009 -2.7e-4,0.0133 8e-4,0.004 0.002,0.009 0.005,0.0121 0.002,0.004 0.006,0.007 0.01,0.009 0.004,0.002 0.008,0.003 0.0119,0.003 h 0.69877 c 0.006,-1.1e-4 0.0122,-0.002 0.0169,-0.007 0.005,-0.004 0.008,-0.01 0.01,-0.0164 l 0.41989,-1.64584 c 0.002,-0.006 0.005,-0.0119 0.0103,-0.0158 0.005,-0.004 0.0109,-0.006 0.0169,-0.006 h 1.54332 c 0.006,2e-5 0.0119,0.002 0.0167,0.006 0.005,0.004 0.008,0.009 0.01,0.0157 l 0.41963,1.64584 c 0.002,0.007 0.005,0.0123 0.0101,0.0165 0.005,0.004 0.0111,0.006 0.0175,0.006 z m -1.83383,-2.49275 0.56171,-2.20522 c 0.002,-0.006 0.006,-0.0112 0.0103,-0.0149 0.005,-0.004 0.0106,-0.006 0.0167,-0.006 0.006,0 0.0116,0.002 0.0164,0.006 0.005,0.004 0.008,0.009 0.0103,0.0149 l 0.56171,2.20522 c 0.001,0.004 0.001,0.009 2.7e-4,0.0135 -7.9e-4,0.004 -0.003,0.009 -0.005,0.0123 -0.003,0.004 -0.006,0.007 -0.01,0.009 -0.004,0.002 -0.008,0.003 -0.0124,0.003 h -1.12342 c -0.004,3e-5 -0.008,-10e-4 -0.0124,-0.003 -0.004,-0.002 -0.007,-0.005 -0.01,-0.009 -0.002,-0.004 -0.004,-0.008 -0.005,-0.0124 -7.9e-4,-0.004 -5.3e-4,-0.009 7.9e-4,-0.0135 z"
       fill="#f7f7f7"
       id="path827"
       style="stroke-width:0.264583" /><path
       d="m 116.01764,232.35106 v -1.7521 c 0,-0.004 5.3e-4,-0.008 0.002,-0.0113 0.001,-0.004 0.003,-0.007 0.006,-0.01 0.003,-0.003 0.006,-0.005 0.009,-0.006 0.003,-0.001 0.007,-0.002 0.0108,-0.002 h 2.04311 c 0.007,-2.7e-4 0.0143,-0.004 0.0196,-0.009 0.005,-0.006 0.008,-0.0132 0.008,-0.021 v -0.70522 c 0,-0.008 -0.003,-0.0153 -0.008,-0.021 -0.005,-0.006 -0.0122,-0.009 -0.0196,-0.009 h -2.04311 c -0.007,0 -0.0143,-0.003 -0.0196,-0.009 -0.005,-0.005 -0.008,-0.0129 -0.008,-0.0206 v -1.49897 c 0,-0.004 5.3e-4,-0.008 0.002,-0.0115 0.001,-0.004 0.003,-0.007 0.006,-0.01 0.003,-0.003 0.006,-0.005 0.009,-0.007 0.003,-0.002 0.007,-0.002 0.0108,-0.002 h 2.3249 c 0.007,0 0.0145,-0.003 0.0198,-0.008 0.005,-0.005 0.008,-0.0129 0.009,-0.0207 v -0.70626 c -2.6e-4,-0.008 -0.003,-0.0152 -0.009,-0.0207 -0.005,-0.005 -0.0124,-0.008 -0.0198,-0.008 h -3.14987 c -0.007,0 -0.0143,0.003 -0.0193,0.009 -0.005,0.005 -0.008,0.0129 -0.008,0.0206 v 5.64484 c 0,0.004 5.3e-4,0.008 0.002,0.0115 0.001,0.004 0.003,0.007 0.006,0.01 0.003,0.003 0.006,0.005 0.009,0.007 0.003,0.002 0.007,0.002 0.0109,0.002 h 3.24988 c 0.007,0 0.0145,-0.003 0.0198,-0.009 0.006,-0.006 0.008,-0.0134 0.008,-0.0214 v -0.74481 c 0,-0.008 -0.003,-0.0157 -0.008,-0.0213 -0.005,-0.006 -0.0124,-0.009 -0.0198,-0.009 h -2.42491 c -0.004,1.4e-4 -0.007,-5.2e-4 -0.0108,-0.002 -0.003,-0.001 -0.006,-0.004 -0.009,-0.006 -0.002,-0.003 -0.004,-0.006 -0.006,-0.01 -10e-4,-0.004 -0.002,-0.007 -0.002,-0.0114 z"
       fill="#f7f7f7"
       id="path829"
       style="stroke-width:0.264583" /><path
       d="m 152.75901,233.13441 -2.65589,-2.9219 c -0.003,-0.003 -0.004,-0.006 -0.006,-0.01 -10e-4,-0.004 -0.002,-0.007 -0.002,-0.0113 0,-0.004 7.9e-4,-0.008 0.002,-0.0113 0.002,-0.004 0.003,-0.007 0.006,-0.01 l 2.38866,-2.6344 c 0.004,-0.004 0.007,-0.009 0.008,-0.015 0.001,-0.006 5.3e-4,-0.0116 -10e-4,-0.017 -0.002,-0.005 -0.006,-0.01 -0.0103,-0.0132 -0.005,-0.003 -0.0101,-0.005 -0.0156,-0.005 h -0.97737 c -0.004,0 -0.008,8.5e-4 -0.0114,0.002 -0.003,0.002 -0.007,0.004 -0.009,0.007 l -2.0275,2.24066 c -0.004,0.004 -0.009,0.007 -0.0145,0.009 -0.006,0.001 -0.0114,7.7e-4 -0.0167,-10e-4 -0.005,-0.002 -0.01,-0.006 -0.013,-0.0111 -0.003,-0.005 -0.005,-0.0109 -0.005,-0.0169 v -2.20523 c 0,-0.008 -0.003,-0.0152 -0.008,-0.0206 -0.005,-0.005 -0.0119,-0.009 -0.0193,-0.009 h -0.76915 c -0.007,-3e-5 -0.0143,0.003 -0.0196,0.008 -0.006,0.005 -0.008,0.0129 -0.009,0.0207 v 5.64484 c 0,0.008 0.003,0.0157 0.008,0.0214 0.005,0.006 0.0127,0.009 0.0201,0.009 h 0.76915 c 0.004,0 0.007,-7.9e-4 0.0108,-0.002 0.003,-0.002 0.006,-0.004 0.009,-0.007 0.002,-0.003 0.004,-0.006 0.006,-0.01 0.001,-0.004 0.002,-0.008 0.002,-0.0115 v -2.48439 c 0,-0.006 0.002,-0.0115 0.005,-0.0162 0.003,-0.005 0.007,-0.008 0.0124,-0.0107 0.005,-0.002 0.0109,-0.003 0.0161,-0.002 0.005,0.001 0.0103,0.004 0.0143,0.008 l 2.29659,2.52609 c 0.005,0.006 0.0122,0.009 0.0196,0.009 h 0.9787 c 0.005,-3.7e-4 0.0106,-0.002 0.0148,-0.006 0.005,-0.003 0.008,-0.008 0.01,-0.0134 0.002,-0.005 0.002,-0.0112 0.001,-0.0168 -0.001,-0.006 -0.004,-0.0108 -0.007,-0.015 z"
       fill="#f7f7f7"
       id="path831"
       style="stroke-width:0.264583" /><path
       d="m 105.58168,224.89584 -3.84386,3.06885 0.71384,-1.81054 z"
       fill="#f7f7f7"
       stroke="#f7f7f7"
       stroke-width="0.188599"
       stroke-linecap="round"
       stroke-linejoin="round"
       id="path833" /><path
       d="m 96.521028,224.89584 3.981182,3.06885 -0.709609,-1.82234 z"
       fill="#f7f7f7"
       stroke="#f7f7f7"
       stroke-width="0.188599"
       stroke-linecap="round"
       stroke-linejoin="round"
       id="path835" /><path
       d="m 104.15823,232.05645 -1.04775,1.68939 2.24208,0.64878 0.64082,-2.30087 z"
       fill="#f7f7f7"
       stroke="#f7f7f7"
       stroke-width="0.188599"
       stroke-linecap="round"
       stroke-linejoin="round"
       id="path837" /><path
       d="m 96.109072,232.09375 0.637911,2.30087 2.245254,-0.64878 -1.045369,-1.68939 z"
       fill="#f7f7f7"
       stroke="#f7f7f7"
       stroke-width="0.188599"
       stroke-linecap="round"
       stroke-linejoin="round"
       id="path839" /><path
       d="m 98.923181,229.21863 -0.617538,0.9815 2.196567,0.10271 -0.0743,-2.48428 z"
       fill="#f7f7f7"
       stroke="#f7f7f7"
       stroke-width="0.188599"
       stroke-linecap="round"
       stroke-linejoin="round"
       id="path841" /><path
       d="m 103.31685,229.23102 -1.52823,-1.41246 -0.0508,2.48428 2.1963,-0.10154 z"
       fill="#f7f7f7"
       stroke="#f7f7f7"
       stroke-width="0.188599"
       stroke-linecap="round"
       stroke-linejoin="round"
       id="path843" /><path
       d="m 98.991972,233.81008 1.372928,-0.67522 -1.182428,-0.93226 z"
       fill="#f7f7f7"
       stroke="#f7f7f7"
       stroke-width="0.188599"
       stroke-linecap="round"
       stroke-linejoin="round"
       id="path845" /><path
       d="m 101.87514,233.13486 1.23534,0.67522 -0.17119,-1.60748 z"
       fill="#f7f7f7"
       stroke="#f7f7f7"
       stroke-width="0.188599"
       stroke-linecap="round"
       stroke-linejoin="round"
       id="path847" /><path
       d="m 103.11048,233.77087 -1.23534,-0.69144 0.0982,0.92578 -0.0106,0.38944 z"
       fill="#fef9f9"
       stroke="#fef9f9"
       stroke-width="0.188599"
       stroke-linecap="round"
       stroke-linejoin="round"
       id="path849" /><path
       d="m 98.991972,233.77087 1.275558,0.62378 -0.008,-0.38944 0.10531,-0.92578 z"
       fill="#fef9f9"
       stroke="#fef9f9"
       stroke-width="0.188599"
       stroke-linecap="round"
       stroke-linejoin="round"
       id="path851" /><path
       d="m 100.22758,231.47193 -1.098024,-0.34838 0.7747,-0.38229 z"
       fill="#233447"
       stroke="#233447"
       stroke-width="0.188599"
       stroke-linecap="round"
       stroke-linejoin="round"
       id="path853" /><path
       d="m 101.87514,231.47193 0.32226,-0.73067 0.77602,0.38229 z"
       fill="#233447"
       stroke="#233447"
       stroke-width="0.188599"
       stroke-linecap="round"
       stroke-linejoin="round"
       id="path855" /><path
       d="m 99.073464,233.81008 0.193146,-1.75363 -1.23534,0.0387 z"
       fill="#f7f7f7"
       stroke="#f7f7f7"
       stroke-width="0.188599"
       stroke-linecap="round"
       stroke-linejoin="round"
       id="path857" /><path
       d="m 102.97342,232.05645 0.19262,1.75363 1.04299,-1.7149 z"
       fill="#f7f7f7"
       stroke="#f7f7f7"
       stroke-width="0.188599"
       stroke-linecap="round"
       stroke-linejoin="round"
       id="path859" /><path
       d="m 103.93412,230.15674 -2.1963,0.10483 0.2032,1.21039 0.32438,-0.7288 0.78158,0.38132 z"
       fill="#f7f7f7"
       stroke="#f7f7f7"
       stroke-width="0.188599"
       stroke-linecap="round"
       stroke-linejoin="round"
       id="path861" /><path
       d="m 99.19676,231.12448 0.77761,-0.38132 0.32464,0.7288 0.2032,-1.21039 -2.196567,-0.10483 z"
       fill="#f7f7f7"
       stroke="#f7f7f7"
       stroke-width="0.188599"
       stroke-linecap="round"
       stroke-linejoin="round"
       id="path863" /><path
       d="m 98.305643,230.15674 0.960967,2.04589 -0.03254,-1.01857 z"
       fill="#f7f7f7"
       stroke="#f7f7f7"
       stroke-width="0.188599"
       stroke-linecap="round"
       stroke-linejoin="round"
       id="path865" /><path
       d="m 103.00993,231.18406 -0.0365,1.01857 0.96097,-2.04589 z"
       fill="#f7f7f7"
       stroke="#f7f7f7"
       stroke-width="0.188599"
       stroke-linecap="round"
       stroke-linejoin="round"
       id="path867" /><path
       d="m 100.4956,230.3029 -0.26802,1.20642 0.33999,1.42401 0.072,-1.87484 z"
       fill="#f7f7f7"
       stroke="#f7f7f7"
       stroke-width="0.188599"
       stroke-linecap="round"
       stroke-linejoin="round"
       id="path869" /><path
       d="m 101.69416,230.3029 -0.0937,0.75149 0.045,1.87894 0.22939,-1.42401 z"
       fill="#f7f7f7"
       stroke="#f7f7f7"
       stroke-width="0.188599"
       stroke-linecap="round"
       stroke-linejoin="round"
       id="path871" /><path
       d="m 101.86006,231.52445 -0.25956,1.41774 0.18865,0.13719 1.14882,-0.94763 0.0352,-0.95213 z"
       fill="#f7f7f7"
       stroke="#f7f7f7"
       stroke-width="0.188599"
       stroke-linecap="round"
       stroke-linejoin="round"
       id="path873" /><path
       d="m 99.129556,231.17962 0.03122,0.95213 1.152264,0.94763 0.18917,-0.13719 -0.26035,-1.41774 z"
       fill="#f7f7f7"
       stroke="#f7f7f7"
       stroke-width="0.188599"
       stroke-linecap="round"
       stroke-linejoin="round"
       id="path875" /><path
       d="m 101.8762,234.43204 0.0116,-0.38831 -0.0976,-0.0917 h -1.4777 l -0.0937,0.0917 0.008,0.38831 -1.234548,-0.62193 0.431271,0.37555 0.877627,0.6474 h 1.50071 l 0.87789,-0.6474 0.43101,-0.37555 z"
       fill="#fef9f9"
       stroke="#fef9f9"
       stroke-width="0.188599"
       stroke-linecap="round"
       stroke-linejoin="round"
       id="path877" /><path
       d="m 101.77063,233.08515 -0.18548,-0.15185 h -1.07129 l -0.18548,0.15185 -0.1008,1.01721 0.0926,-0.10107 h 1.45838 l 0.0966,0.10107 z"
       fill="#161616"
       stroke="#161616"
       stroke-width="0.188599"
       stroke-linecap="round"
       stroke-linejoin="round"
       id="path879" /><path
       d="m 105.80208,228.20962 0.32862,-1.71786 -0.49266,-1.59592 -3.7629,3.00646 1.44727,1.31763 2.04549,0.64452 0.45006,-0.56861 -0.19579,-0.1514 0.313,-0.30773 -0.23866,-0.20199 0.31301,-0.25672 z"
       fill="#434343"
       stroke="#434343"
       stroke-width="0.188599"
       stroke-linecap="round"
       stroke-linejoin="round"
       id="path881" /><path
       d="m 96.109072,226.49176 0.332581,1.71786 -0.211137,0.16838 0.313002,0.25672 -0.238654,0.20199 0.313002,0.30773 -0.195792,0.1514 0.450057,0.56861 2.045229,-0.64452 1.44754,-1.31763 -3.762909,-3.00646 z"
       fill="#434343"
       stroke="#434343"
       stroke-width="0.188599"
       stroke-linecap="round"
       stroke-linejoin="round"
       id="path883" /><path
       d="m 105.31234,229.91988 -2.03544,-0.63997 0.61516,0.99949 -0.91864,1.9232 1.21418,-0.0169 h 1.80604 z"
       fill="#f7f7f7"
       stroke="#f7f7f7"
       stroke-width="0.188599"
       stroke-linecap="round"
       stroke-linejoin="round"
       id="path885" /><path
       d="m 98.948845,229.27991 -2.130425,0.63997 -0.709348,2.26584 h 1.890713 l 1.266825,0.0169 -0.961496,-1.9232 z"
       fill="#f7f7f7"
       stroke="#f7f7f7"
       stroke-width="0.188599"
       stroke-linecap="round"
       stroke-linejoin="round"
       id="path887" /><path
       d="m 101.70924,230.31615 0.13124,-2.39734 0.58367,-1.70778 h -2.60853 l 0.58367,1.70778 0.13123,2.39734 0.0503,0.75589 0.004,1.86121 h 1.07051 l 0.004,-1.86121 z"
       fill="#f7f7f7"
       stroke="#f7f7f7"
       stroke-width="0.188599"
       stroke-linecap="round"
       stroke-linejoin="round"
       id="path889" /></g></svg>
