<?xml version="1.0" encoding="UTF-8" standalone="no"?>
<!-- Created with Inkscape (http://www.inkscape.org/) -->

<svg
   width="50.762955mm"
   height="10.791454mm"
   viewBox="0 0 50.762955 3.6334866"
   version="1.1"
   id="svg5"
   xmlSpace="preserve"
   xmlnsSvg="http://www.w3.org/2000/svg"
   xmlns="http://www.w3.org/2000/svg"><defs
     id="defs2"><clipPath
       id="clip0_1_294"><rect
         width="38.315701"
         height="40.786598"
         fill="#ffffff"
         transform="translate(1102.91,14.6062)"
         id="rect902"
         x="0"
         y="0" /></clipPath></defs><g
     id="g1104"
     transform="translate(-222.61642,-227.91029)"><g
       clip-path="url(#clip0_1_294)"
       id="g893"
       transform="matrix(0.26458333,0,0,0.26458333,-69.195184,220.60417)"
       style="fill:none"><path
         fill-rule="evenodd"
         clip-rule="evenodd"
         d="m 1141.23,34.9995 c 0,11.2623 -8.58,20.3933 -19.16,20.3933 -10.58,0 -19.16,-9.131 -19.16,-20.3933 0,-11.2623 8.58,-20.3933 19.16,-20.3933 10.58,0 19.16,9.131 19.16,20.3933 z m -28.87,0.6853 0.09,-0.1384 4.98,-8.2991 c 0.07,-0.1215 0.24,-0.109 0.3,0.023 0.83,1.9863 1.55,4.4566 1.21,5.9945 -0.14,0.6327 -0.53,1.4896 -0.98,2.2816 -0.05,0.1153 -0.12,0.2284 -0.18,0.3374 -0.03,0.0503 -0.09,0.0796 -0.15,0.0796 h -5.12 c -0.14,0 -0.22,-0.1592 -0.15,-0.2786 z m 22.22,2.8557 v -1.3136 c 0,-0.1216 -0.11,-0.2096 -0.22,-0.176 l -5.83,1.7935 c -0.03,0.0083 -0.06,0.0272 -0.08,0.0523 -0.62,0.734 -1.15,1.2265 -1.29,1.357 l -0.01,0.0091 c -0.37,0.3269 -0.82,0.505 -1.29,0.505 h -2.11 v -2.2901 h 1.68 c 0.04,0 0.08,-0.0168 0.12,-0.0461 l 0.21,-0.2116 c 0.09,-0.0901 0.2,-0.1991 0.34,-0.3395 0.01,-0.0119 0.02,-0.024 0.03,-0.0362 0.07,-0.0735 0.14,-0.152 0.22,-0.2382 0.08,-0.0901 0.17,-0.1907 0.25,-0.2892 0.13,-0.1508 0.25,-0.308 0.39,-0.4735 0.09,-0.1089 0.18,-0.2325 0.26,-0.3562 0.1,-0.1173 0.19,-0.2493 0.28,-0.375 0.03,-0.0504 0.06,-0.1014 0.1,-0.1535 0.03,-0.0496 0.06,-0.1003 0.1,-0.1524 0.06,-0.1006 0.12,-0.2074 0.18,-0.308 0.16,-0.2724 0.3,-0.5637 0.42,-0.8549 0.05,-0.1247 0.1,-0.256 0.14,-0.3837 0.01,-0.016 0.01,-0.032 0.02,-0.0479 0.04,-0.1488 0.08,-0.2891 0.11,-0.4379 0.07,-0.3499 0.09,-0.6977 0.06,-1.0455 -0.01,-0.109 -0.02,-0.2158 -0.04,-0.3164 v -0.0167 c -0.01,-0.0713 -0.03,-0.1509 -0.05,-0.2242 -0.07,-0.3395 -0.18,-0.6789 -0.32,-1.012 -0.05,-0.1237 -0.1,-0.2494 -0.15,-0.3646 -0.13,-0.2493 -0.26,-0.4987 -0.41,-0.7396 -0.03,-0.0509 -0.06,-0.1025 -0.1,-0.1539 -0.02,-0.0397 -0.05,-0.0793 -0.07,-0.1185 -0.1,-0.1555 -0.2,-0.3054 -0.31,-0.4509 -0.02,-0.0329 -0.04,-0.0656 -0.07,-0.098 -0.06,-0.0853 -0.12,-0.1706 -0.19,-0.2564 -0.04,-0.047 -0.08,-0.0943 -0.11,-0.1417 -0.1,-0.132 -0.2,-0.2577 -0.31,-0.3814 -0.36,-0.44 -0.75,-0.838 -1.09,-1.1775 -0.06,-0.067 -0.13,-0.1341 -0.2,-0.199 -0.27,-0.2577 -0.51,-0.4819 -0.71,-0.6558 -0.06,-0.0499 -0.12,-0.099 -0.17,-0.1448 -0.03,-0.0311 -0.07,-0.0607 -0.1,-0.0878 -0.06,-0.0488 -0.11,-0.092 -0.16,-0.1283 -0.03,-0.023 -0.05,-0.0432 -0.07,-0.0603 -0.02,-0.0125 -0.04,-0.0209 -0.05,-0.0272 l -0.23,-0.067 v -1.9779 c 0,-0.3227 -0.12,-0.6118 -0.31,-0.8235 -0.2,-0.2116 -0.47,-0.3415 -0.77,-0.3415 -0.6,0 -1.08,0.5217 -1.08,1.165 v 1.3325 l -0.12,-0.0335 -0.3,-0.0922 -0.28,-0.0817 c 0,0 0,-4e-4 0,-8e-4 0,-6e-4 0,-0.0013 -0.01,-0.0013 v 0 l -2.11,-0.6076 c -0.09,-0.0273 -0.17,0.0796 -0.12,0.1697 l 0.34,0.6621 c 0.01,0.0509 0.04,0.1018 0.06,0.154 0.02,0.0339 0.04,0.0683 0.05,0.1037 0.06,0.1173 0.11,0.2409 0.16,0.3646 0.05,0.1089 0.1,0.2158 0.15,0.3331 0.03,0.0552 0.05,0.111 0.07,0.1676 0.09,0.208 0.19,0.4266 0.28,0.6621 0.08,0.1991 0.15,0.3981 0.22,0.6055 0.19,0.5217 0.37,1.0791 0.53,1.6511 0.04,0.128 0.07,0.2519 0.1,0.3775 0.01,0.0532 0.02,0.1067 0.04,0.161 l 0.02,0.1005 c 0.06,0.2661 0.12,0.5301 0.16,0.7962 0.03,0.1823 0.06,0.3562 0.07,0.5322 0.03,0.199 0.05,0.3981 0.06,0.5971 0.02,0.1823 0.02,0.373 0.02,0.5553 0,0.4651 -0.04,0.9135 -0.13,1.3367 0,0.0227 -0.01,0.0458 -0.02,0.069 -0.02,0.103 -0.05,0.2097 -0.08,0.3124 -0.03,0.1098 -0.07,0.2197 -0.11,0.3338 -0.01,0.0404 -0.03,0.0813 -0.04,0.1229 0,0.0074 0,0.0148 -0.01,0.0223 -0.03,0.083 -0.06,0.1674 -0.09,0.2501 -0.2,0.4987 -0.44,0.9952 -0.69,1.4604 -0.36,0.6893 -0.73,1.2948 -0.99,1.6845 -0.02,0.0252 -0.03,0.0492 -0.05,0.0722 -0.01,0.0288 -0.03,0.0561 -0.05,0.0829 -0.08,0.1215 0,0.2933 0.14,0.2933 h 2.73 v 2.2901 h -2.76 c -0.74,0 -1.42,-0.4463 -1.75,-1.1608 -0.18,-0.3583 -0.24,-0.7522 -0.2,-1.1377 0.01,-0.1152 -0.07,-0.2242 -0.18,-0.2242 h -5.57 c -0.09,0 -0.17,0.0817 -0.17,0.1823 v 0.1215 c 0,3.7798 2.87,6.843 6.41,6.843 h 9.98 c 1.87,0 2.93,-1.8156 3.98,-3.6001 0.29,-0.4975 0.58,-0.9925 0.89,-1.4452 0.55,-0.8129 1.87,-1.4583 2.25,-1.6343 0.06,-0.0293 0.11,-0.0963 0.11,-0.1718 z"
         fill="#ffffff"
         id="path891" /></g><path
       d="m 239.26665,232.96643 c -0.56092,0 -1.07421,-0.12983 -1.54253,-0.38947 -0.46302,-0.25963 -0.83079,-0.6209 -1.1086,-1.08373 -0.26987,-0.4685 -0.40746,-0.99343 -0.40746,-1.5748 0,-0.58137 0.13759,-1.1035 0.40746,-1.56633 0.27781,-0.46284 0.64558,-0.8241 1.1086,-1.08374 0.46832,-0.25963 0.98161,-0.38946 1.54253,-0.38946 0.55827,0 1.06891,0.12983 1.53193,0.38946 0.46832,0.25964 0.83609,0.6209 1.10067,1.08374 0.26987,0.46283 0.40481,0.98496 0.40481,1.56633 0,0.58137 -0.13494,1.1063 -0.40481,1.5748 -0.27252,0.46283 -0.63765,0.8241 -1.10067,1.08373 -0.46302,0.25964 -0.97366,0.38947 -1.53193,0.38947 z m 0,-1.3208 c 0.4736,0 0.85195,-0.15804 1.13241,-0.47413 0.2884,-0.3161 0.43392,-0.73377 0.43392,-1.25307 0,-0.52493 -0.14552,-0.94263 -0.43392,-1.25307 -0.28046,-0.3161 -0.65881,-0.47413 -1.13241,-0.47413 -0.48155,0 -0.86519,0.15523 -1.15359,0.46567 -0.28046,0.31043 -0.42333,0.73096 -0.42333,1.26153 0,0.52493 0.14287,0.94543 0.42333,1.26153 0.2884,0.31044 0.67204,0.46567 1.15359,0.46567 z m 5.03766,-2.794 c 0.14023,-0.22013 0.33602,-0.39793 0.58473,-0.5334 0.24871,-0.13547 0.53975,-0.2032 0.87048,-0.2032 0.39158,0 0.74348,0.0988 1.05833,0.29633 0.3175,0.19757 0.56621,0.47977 0.74613,0.84667 0.18521,0.3669 0.28046,0.79303 0.28046,1.27847 0,0.48543 -0.0952,0.9144 -0.28046,1.28693 -0.17992,0.3669 -0.42863,0.65193 -0.74613,0.85513 -0.31485,0.19757 -0.66675,0.29634 -1.05833,0.29634 -0.32544,0 -0.61648,-0.0677 -0.87048,-0.2032 -0.24871,-0.13547 -0.4445,-0.31044 -0.58473,-0.52494 v 2.91254 h -1.44727 v -6.97654 h 1.44727 z m 2.0664,1.68487 c 0,-0.36124 -0.10319,-0.64347 -0.30427,-0.84667 -0.19844,-0.20884 -0.4445,-0.31327 -0.73819,-0.31327 -0.2884,0 -0.53181,0.10443 -0.73554,0.31327 -0.19844,0.20883 -0.29634,0.4939 -0.29634,0.85513 0,0.36124 0.0979,0.6463 0.29634,0.85514 0.20373,0.20883 0.44714,0.31326 0.73554,0.31326 0.2884,0 0.53446,-0.10443 0.73819,-0.31326 0.20108,-0.2145 0.30427,-0.50237 0.30427,-0.8636 z m 6.43202,-0.0677 c 0,0.13547 -0.008,0.27657 -0.0265,0.42334 h -3.27554 c 0.0212,0.2935 0.11642,0.51929 0.27781,0.67733 0.16933,0.1524 0.37571,0.2286 0.61913,0.2286 0.36248,0 0.61383,-0.1524 0.75406,-0.4572 h 1.53987 c -0.0794,0.31043 -0.22225,0.58983 -0.43127,0.8382 -0.20373,0.24836 -0.46037,0.4431 -0.76993,0.5842 -0.30957,0.1411 -0.65882,0.21167 -1.04246,0.21167 -0.46302,0 -0.87313,-0.0988 -1.23561,-0.29634 -0.35983,-0.19756 -0.64293,-0.47977 -0.84666,-0.84666 -0.20373,-0.3669 -0.30427,-0.79587 -0.30427,-1.28694 0,-0.49106 0.0979,-0.92003 0.29633,-1.28693 0.20373,-0.3669 0.48419,-0.6491 0.84667,-0.84667 0.35983,-0.19756 0.77522,-0.29633 1.24354,-0.29633 0.45773,0 0.86518,0.096 1.21973,0.28787 0.35454,0.1919 0.63235,0.46566 0.83079,0.82126 0.20108,0.3556 0.30427,0.77047 0.30427,1.2446 z m -1.48167,-0.381 c 0,-0.24836 -0.0847,-0.4459 -0.254,-0.59266 -0.16933,-0.14677 -0.381,-0.22014 -0.635,-0.22014 -0.24341,0 -0.44979,0.0706 -0.61912,0.21167 -0.16404,0.1411 -0.26459,0.3415 -0.30427,0.60113 z m 4.87098,-1.9558 c 0.55298,0 0.99219,0.18063 1.32027,0.54187 0.33338,0.3556 0.50006,0.84667 0.50006,1.4732 v 2.76013 h -1.43933 v -2.5654 c 0,-0.3161 -0.082,-0.56163 -0.24606,-0.7366 -0.16404,-0.17497 -0.38365,-0.26246 -0.66146,-0.26246 -0.27517,0 -0.49742,0.0875 -0.65881,0.26246 -0.16404,0.17497 -0.24606,0.4205 -0.24606,0.7366 v 2.5654 h -1.44728 v -4.7244 h 1.44728 v 0.62654 c 0.14552,-0.20884 0.34395,-0.37254 0.59266,-0.49107 0.24871,-0.12417 0.52652,-0.18627 0.83873,-0.18627 z m 4.72281,4.83447 c -0.43656,0 -0.8255,-0.0706 -1.16945,-0.21167 -0.34396,-0.1411 -0.62178,-0.34996 -0.8308,-0.62653 -0.20108,-0.27657 -0.30956,-0.6096 -0.32014,-0.99907 h 1.53987 c 0.0238,0.22014 0.10054,0.38947 0.23019,0.508 0.12965,0.1129 0.29898,0.16934 0.508,0.16934 0.21431,0 0.38365,-0.048 0.508,-0.14394 0.12435,-0.1016 0.18521,-0.2399 0.18521,-0.41486 0,-0.14677 -0.0503,-0.26811 -0.15346,-0.36407 -0.0952,-0.096 -0.21696,-0.17497 -0.36248,-0.23707 -0.14287,-0.0621 -0.34396,-0.13263 -0.61119,-0.21166 -0.38364,-0.11854 -0.69585,-0.23707 -0.93927,-0.3556 -0.24341,-0.11854 -0.44979,-0.29351 -0.62706,-0.52494 -0.17462,-0.23143 -0.26194,-0.5334 -0.26194,-0.90593 0,-0.55317 0.20109,-0.98497 0.60061,-1.2954 0.40216,-0.3161 0.92339,-0.47413 1.56633,-0.47413 0.65617,0 1.18269,0.15803 1.58485,0.47413 0.39953,0.31043 0.61384,0.74507 0.64294,1.30387 h -1.56633 c -0.0106,-0.19191 -0.082,-0.3415 -0.21167,-0.44874 -0.12964,-0.1129 -0.29633,-0.16933 -0.50006,-0.16933 -0.17463,0 -0.31485,0.048 -0.42333,0.14393 -0.10584,0.0903 -0.1614,0.22297 -0.1614,0.39794 0,0.1919 0.0926,0.34149 0.27252,0.44873 0.17992,0.10723 0.46302,0.22296 0.84667,0.34713 0.38364,0.12983 0.69321,0.254 0.93133,0.37254 0.24342,0.11853 0.44979,0.29069 0.62706,0.51646 0.17463,0.22577 0.26194,0.51647 0.26194,0.87207 0,0.33867 -0.0873,0.6463 -0.26194,0.92287 -0.16933,0.27656 -0.41804,0.4967 -0.74612,0.6604 -0.32808,0.16369 -0.71438,0.24553 -1.15888,0.24553 z m 7.25752,-2.49767 c 0,0.13547 -0.008,0.27657 -0.0265,0.42334 h -3.27555 c 0.0212,0.2935 0.11378,0.51929 0.27782,0.67733 0.16933,0.1524 0.37571,0.2286 0.61912,0.2286 0.35984,0 0.61119,-0.1524 0.75406,-0.4572 h 1.53988 c -0.0794,0.31043 -0.22225,0.58983 -0.43127,0.8382 -0.20373,0.24836 -0.46038,0.4431 -0.76994,0.5842 -0.31221,0.1411 -0.65881,0.21167 -1.04246,0.21167 -0.46302,0 -0.87577,-0.0988 -1.2356,-0.29634 -0.36248,-0.19756 -0.64294,-0.47977 -0.84667,-0.84666 -0.20373,-0.3669 -0.30427,-0.79587 -0.30427,-1.28694 0,-0.49106 0.0979,-0.92003 0.29633,-1.28693 0.20373,-0.3669 0.48419,-0.6491 0.84667,-0.84667 0.35983,-0.19756 0.77523,-0.29633 1.24354,-0.29633 0.45773,0 0.86519,0.096 1.21973,0.28787 0.35454,0.1919 0.63236,0.46566 0.83079,0.82126 0.20109,0.3556 0.30427,0.77047 0.30427,1.2446 z m -1.48166,-0.381 c 0,-0.24836 -0.0847,-0.4459 -0.254,-0.59266 -0.16934,-0.14677 -0.381,-0.22014 -0.635,-0.22014 -0.24342,0 -0.44979,0.0706 -0.61913,0.21167 -0.16404,0.1411 -0.26458,0.3415 -0.30427,0.60113 z m 1.70391,0.44874 c 0,-0.48544 0.09,-0.91157 0.26988,-1.27847 0.18521,-0.3669 0.43656,-0.6491 0.75406,-0.84667 0.31486,-0.19756 0.6694,-0.29633 1.05834,-0.29633 0.33337,0 0.62441,0.0677 0.87047,0.2032 0.254,0.13547 0.4498,0.31327 0.58473,0.5334 v -0.66887 h 1.44727 v 4.7244 h -1.44727 v -0.66886 c -0.14023,0.22013 -0.33866,0.39793 -0.59266,0.5334 -0.24871,0.13546 -0.53975,0.2032 -0.87048,0.2032 -0.38365,0 -0.73554,-0.0988 -1.0504,-0.29634 -0.3175,-0.2032 -0.56885,-0.48823 -0.75406,-0.85513 -0.17992,-0.37253 -0.26988,-0.8015 -0.26988,-1.28693 z m 3.53748,0.008 c 0,-0.36123 -0.10054,-0.6463 -0.30427,-0.85513 -0.19843,-0.20884 -0.43921,-0.31327 -0.7276,-0.31327 -0.2884,0 -0.53446,0.10443 -0.73819,0.31327 -0.19579,0.2032 -0.29633,0.48543 -0.29633,0.84667 0,0.36123 0.10054,0.6491 0.29633,0.8636 0.20373,0.20883 0.44979,0.31326 0.73819,0.31326 0.28839,0 0.52917,-0.10443 0.7276,-0.31326 0.20373,-0.20884 0.30427,-0.4939 0.30427,-0.85514 z"
       fill="#ffffff"
       id="path895"
       style="stroke-width:0.264583" /></g></svg>
