<?xml version="1.0" encoding="UTF-8" standalone="no"?>
<!-- Created with Inkscape (http://www.inkscape.org/) -->

<svg
   width="55.299503mm"
   height="9.3809757mm"
   viewBox="0 0 55.299503 3.158578"
   version="1.1"
   id="svg5"
   xmlSpace="preserve"
   xmlnsSvg="http://www.w3.org/2000/svg"
   xmlns="http://www.w3.org/2000/svg"><defs
     id="defs2" /><g
     id="g1060"
     transform="translate(29.821744,-228.63069)"><path
       d="m -20.413426,226.05459 v 7.51416 h 1.524 v -4.75191 l 1.74625,3.18558 h 1.121833 l 1.74625,-3.18558 v 4.75191 h 1.524 v -7.51416 h -1.42875 l -2.38125,4.33916 -2.370667,-4.33916 z m 9.244806,0 v 7.51416 h 2.7834165 c 1.36525,0 2.7410833,-0.61383 2.7410833,-2.13783 0,-0.84667 -0.41275,-1.53458 -1.2065,-1.8415 0.60325,-0.32808 0.889,-0.91017 0.889,-1.5875 0,-1.43933 -1.2488333,-1.94733 -2.4765,-1.94733 z m 1.5239998,6.21241 v -1.9685 h 1.1853334 c 0.6561666,0 1.2382499,0.24342 1.2382499,0.98425 0,0.74084 -0.5820833,0.98425 -1.2382499,0.98425 z m 0,-3.18558 v -1.72508 h 1.0371667 c 0.5820833,0 1.0795,0.21166 1.0795,0.86783 0,0.64558 -0.508,0.85725 -1.0795,0.85725 z m 4.6865646,-1.62983 h 2.1166666 v 6.11716 h 1.5769166 v -6.11716 h 2.11666668 v -1.397 H -4.9580556 Z m 5.81210197,3.32316 c 0,1.68275 1.23825003,2.95275 2.89983333,2.95275 1.7144999,0 2.9421666,-1.29116 2.9421666,-2.96333 0,-1.69333 -1.23825,-2.94217 -2.8998333,-2.94217 -1.6933333,0 -2.94216663,1.29117 -2.94216663,2.95275 z M 3.7750463,229.1555 c 0.8995834,0 1.4075833,0.79375 1.4075833,1.61925 0,0.83609 -0.5291666,1.61925 -1.4075833,1.61925 -0.889,0 -1.4075833,-0.80433 -1.4075833,-1.61925 0,-0.83608 0.5291667,-1.61925 1.4075833,-1.61925 z m 4.1065979,-3.48191 v 7.89516 h 1.4499166 v -2.78341 l 2.1907502,2.78341 h 1.87325 l -2.582334,-3.1115 2.328334,-2.4765 h -1.735667 l -2.0743332,2.27542 v -4.58258 z m 5.8496728,5.09058 c 0,1.69333 1.17475,2.96333 2.8575,2.96333 1.04775,0 2.137833,-0.51858 2.54,-1.524 L 17.8059,231.78017 c -0.275166,0.4445 -0.677333,0.6985 -1.2065,0.6985 -0.804333,0 -1.248833,-0.59267 -1.36525,-1.3335 h 4.011084 v -0.37042 c 0,-1.69333 -1.026584,-2.95275 -2.7305,-2.95275 -1.672167,0 -2.783417,1.35467 -2.783417,2.94217 z m 2.783417,-1.79917 c 0.709083,0 1.11125,0.52917 1.2065,1.18534 h -2.465917 c 0.127,-0.65617 0.550333,-1.18534 1.259417,-1.18534 z m 3.861858,-0.98425 v 5.588 h 1.481667 V 230.362 c 0,-0.68791 0.455083,-1.2065 1.143,-1.2065 0.73025,0 0.994833,0.60325 0.994833,1.24884 v 3.16441 h 1.481667 v -3.35491 c 0,-1.30175 -0.66675,-2.39184 -2.042584,-2.39184 -0.677333,0 -1.30175,0.28575 -1.651,0.87842 l -0.04233,-0.71967 z"
       fill="#f7f7f7"
       id="path777"
       style="stroke-width:0.264583" /><path
       d="m -22.748903,227.2192 c 0.865452,2.11323 0.07197,5.02 -1.778794,6.49076 -1.85076,1.47077 -4.051035,0.94329 -4.916752,-1.16993 -0.865717,-2.11323 -0.07197,-5.02 1.778794,-6.49076 1.85076,-1.47077 4.051035,-0.94329 4.916752,1.16993 z"
       fill="#434343"
       stroke="#434343"
       stroke-width="0.0529167"
       id="path779" /><path
       d="m -22.115755,227.59732 c 0.817033,1.99509 0.068,4.73956 -1.679575,6.1283 -1.747573,1.38875 -3.825082,0.89057 -4.64238,-1.1045 -0.817033,-1.99506 -0.068,-4.73956 1.679575,-6.1283 1.747573,-1.38872 3.825082,-0.89057 4.64238,1.1045 z"
       fill="#ffffff"
       stroke="#434343"
       stroke-width="0.0529167"
       id="path781" /><path
       d="m -22.391716,227.90267 c 0.755915,1.84555 0.103717,4.34687 -1.456531,5.58684 -1.560513,1.24 -3.43826,0.74912 -4.194175,-1.09643 -0.755915,-1.84558 -0.103717,-4.34687 1.456531,-5.58687 1.560248,-1.23996 3.437996,-0.74911 4.194175,1.09646 z"
       stroke="#434343"
       stroke-width="0.0529167"
       id="path783"
       style="fill:none" /><path
       d="m -22.869289,228.36742 c 0.628121,1.53339 0.09472,3.60436 -1.190625,4.62581 -1.285346,1.02145 -2.836598,0.60704 -3.464718,-0.92636 -0.628121,-1.53339 -0.09472,-3.60436 1.190625,-4.62581 1.285345,-1.02145 2.836597,-0.60706 3.464718,0.92636 z"
       stroke="#434343"
       stroke-width="0.0529167"
       id="path785"
       style="fill:none" /><path
       d="m -24.939389,228.99218 v -0.0603 l 0.193146,-0.0829 v 0.0603 z"
       fill="#434343"
       stroke="#434343"
       stroke-width="0.0529167"
       id="path787" /><path
       d="m -25.120893,229.29637 v -0.0603 l 0.556419,-0.23863 v 0.0603 z"
       fill="#434343"
       stroke="#434343"
       stroke-width="0.0529167"
       id="path789" /><path
       d="m -25.967824,230.45188 v -0.0602 l 0.0725,-0.031 v 0.0602 z"
       fill="#434343"
       stroke="#434343"
       stroke-width="0.0529167"
       id="path791" /><path
       d="m -25.725995,230.34809 v -0.0603 l 0.07223,-0.031 v 0.0603 z"
       fill="#434343"
       stroke="#434343"
       stroke-width="0.0529167"
       id="path793" /><path
       d="m -25.483901,230.24429 v -0.0602 l 0.0725,-0.031 v 0.0602 z"
       fill="#434343"
       stroke="#434343"
       stroke-width="0.0529167"
       id="path795" /><path
       d="m -25.241543,230.14047 v -0.0603 l 0.07223,-0.031 v 0.0603 z"
       fill="#434343"
       stroke="#434343"
       stroke-width="0.0529167"
       id="path797" /><path
       d="m -24.999978,230.03662 v -0.0602 l 0.07223,-0.031 v 0.0602 z"
       fill="#434343"
       stroke="#434343"
       stroke-width="0.0529167"
       id="path799" /><path
       d="m -24.757885,229.93288 v -0.0603 l 0.0725,-0.031 v 0.0603 z"
       fill="#434343"
       stroke="#434343"
       stroke-width="0.0529167"
       id="path801" /><path
       d="m -24.515791,229.82905 v -0.0602 l 0.0725,-0.031 v 0.0602 z"
       fill="#434343"
       stroke="#434343"
       stroke-width="0.0529167"
       id="path803" /><path
       d="m -24.273962,229.72528 v -0.0603 l 0.07223,-0.031 v 0.0603 z"
       fill="#434343"
       stroke="#434343"
       stroke-width="0.0529167"
       id="path805" /><path
       d="m -24.031868,229.62151 v -0.0603 l 0.07223,-0.031 v 0.0603 z"
       fill="#434343"
       stroke="#434343"
       stroke-width="0.0529167"
       id="path807" /><path
       d="m -23.790303,229.51772 v -0.0603 l 0.0725,-0.031 v 0.0603 z"
       fill="#434343"
       stroke="#434343"
       stroke-width="0.0529167"
       id="path809" /><path
       d="m -25.423312,231.01055 v -0.0602 l 0.0725,-0.031 v 0.0602 z"
       fill="#434343"
       stroke="#434343"
       stroke-width="0.0529167"
       id="path811" /><path
       d="m -24.600722,230.54454 -0.02434,0.0104 v 0.0265 0.22638 0.0265 l 0.02434,-0.0104 0.302419,-0.12973 0.02434,-0.0104 v -0.0265 -0.22638 -0.0265 l -0.02434,0.0104 z m 0.399256,0.0816 v 0.0265 l 0.02434,-0.0105 0.302419,-0.12972 0.02434,-0.0105 v -0.0265 -0.22636 -0.0264 l -0.02434,0.0104 -0.302419,0.12975 -0.02434,0.0104 v 0.0265 z m 0.326761,-0.45325 0.02434,-0.0104 v -0.0265 -0.22635 -0.0265 l -0.02434,0.0104 -0.302419,0.12972 -0.02434,0.0104 v 0.0265 0.22635 0.0265 l 0.02434,-0.0104 z m -0.399257,-0.0816 v -0.0265 l -0.02434,0.0104 -0.302419,0.12973 -0.02434,0.0104 v 0.0265 0.22635 0.0265 l 0.02434,-0.0104 0.302419,-0.12975 0.02434,-0.0104 v -0.0265 z m -0.423333,0.80409 v -0.67905 c 0,-0.01 0.0032,-0.0177 0.0082,-0.0245 0.0053,-0.007 0.01429,-0.0154 0.02805,-0.0212 l 0.846667,-0.3633 c 0.01376,-0.006 0.02275,-0.006 0.02804,-0.003 0.005,0.003 0.0082,0.008 0.0082,0.0175 v 0.67905 c 0,0.01 -0.0032,0.0177 -0.0082,0.0245 -0.0053,0.007 -0.01429,0.0153 -0.02804,0.0212 l -0.846667,0.36327 c -0.01376,0.006 -0.02275,0.006 -0.02805,0.003 -0.005,-0.003 -0.0082,-0.008 -0.0082,-0.0175 z"
       fill="#434343"
       stroke="#434343"
       stroke-width="0.0529167"
       id="path813" /><path
       d="m -23.29421,230.68964 v 0.0265 l 0.02434,-0.0104 0.217752,-0.0934 v 0.0602 l -0.278341,0.11933 -3.024453,1.29741 -0.278341,0.11933 v -0.0603 l 0.217752,-0.0934 0.02434,-0.0104 v -0.0265 -0.16975 c 0,-0.01 0.0032,-0.0177 0.0082,-0.0245 0.0053,-0.007 0.01429,-0.0153 0.02804,-0.0212 l 0.120915,-0.0519 0.02434,-0.0104 v -0.0265 -1.35813 -0.0265 l -0.02434,0.0104 -0.181504,0.0778 c -0.01349,0.006 -0.02275,0.006 -0.02805,0.003 -0.005,-0.003 -0.0082,-0.008 -0.0082,-0.0175 v -0.20939 c 0,-0.009 0.0026,-0.0176 0.01217,-0.0274 l 0.03625,-0.0382 0.01217,-0.0129 v -0.002 l 1.525322,-1.71456 v -8e-5 c 0.009,-0.0101 0.01667,-0.0156 0.02302,-0.0184 0.0066,-0.003 0.01429,-0.004 0.02328,-0.001 v 3e-5 l 0.508264,0.1329 0.03731,0.01 v -0.0481 -0.249 c 0,-0.01 0.0032,-0.0177 0.0082,-0.0245 0.0053,-0.007 0.01429,-0.0153 0.02805,-0.0212 l 0.483923,-0.20759 c 0.01349,-0.006 0.02275,-0.005 0.02805,-0.003 0.0048,0.003 0.0082,0.008 0.0082,0.0175 v 0.67339 0.0146 l 0.01111,0.003 0.459845,0.11967 v 3e-5 l 7.94e-4,1.8e-4 c 0.0095,0.002 0.01217,0.008 0.01217,0.0172 v 0.20936 c 0,0.01 -0.0032,0.0177 -0.0082,0.0245 -0.0053,0.007 -0.01455,0.0153 -0.02805,0.0212 l -0.181504,0.0779 -0.02434,0.0104 v 0.0264 1.35814 0.0264 l 0.02434,-0.0104 0.120915,-0.0519 c 0.01376,-0.006 0.02275,-0.006 0.02804,-0.003 0.005,0.002 0.0082,0.008 0.0082,0.0174 z m -0.495829,-2.61679 v -0.0264 l -0.02434,0.0104 -0.363009,0.15568 -0.02408,0.0104 v 0.0265 0.0566 0.0265 l 0.02408,-0.0104 0.363009,-0.15571 0.02434,-0.0104 v -0.0265 z m -0.38735,0.30943 -0.02408,0.0105 v 0.0264 0.1075 0.0144 l 0.01111,0.003 0.362743,0.099 0.03757,0.0102 v -0.0485 -0.36216 -0.0265 l -0.02434,0.0104 z m -2.177521,1.78298 -0.02434,0.0104 v 0.0265 0.11324 0.0265 l 0.02434,-0.0104 0.181505,-0.0778 2.661443,-1.14173 0.181505,-0.0778 0.02434,-0.0104 v -0.0265 -0.12451 -0.0145 l -0.01111,-0.003 -1.512359,-0.40386 -0.01296,-0.003 -0.01323,0.0147 -1.367102,1.53707 -0.07012,0.0788 0.08308,-0.0357 2.250281,-0.96523 v 0.0603 z m 0.24183,0.12258 -0.02434,0.0104 v 0.0265 1.35814 0.0264 l 0.02434,-0.0104 0.242093,-0.10377 0.02434,-0.0104 v -0.0265 -0.79224 -0.0265 l -0.02434,0.0105 -0.09684,0.0415 v -0.0603 l 0.157162,-0.0674 0.665427,-0.28543 0.157163,-0.0674 v 0.0603 l -0.09657,0.0415 -0.02434,0.0104 v 0.0264 0.79225 0.0265 l 0.02434,-0.0104 1.512358,-0.64871 0.02434,-0.0104 v -0.0265 -1.35813 -0.0265 l -0.02434,0.0104 z m 0.363008,0.41018 -0.02434,0.0104 v 0.0265 0.79224 0.0265 l 0.02434,-0.0104 0.544512,-0.23352 0.02434,-0.0105 v -0.0265 -0.79224 -0.0265 l -0.02434,0.0104 z m -0.568854,1.28903 v 0.0265 l 0.02434,-0.0104 2.903803,-1.24552 0.02434,-0.0104 v -0.0265 -0.11319 -0.0265 l -0.02434,0.0104 -0.12118,0.0519 -1.633273,0.70059 -0.665427,0.28543 -0.362743,0.15571 -0.12118,0.0519 -0.02434,0.0104 v 0.0265 z"
       fill="#434343"
       stroke="#434343"
       stroke-width="0.0529167"
       id="path815" /></g></svg>
